# xmcd CD database file generated by OrangeCD 5.2
#
# Track frame offsets:
#	150
#	10112
#	23012
#	35134
#	47066
#	68817
#	83010
#	93894
#	106535
#	118749
#	129034
#	140722
#	151810
#	171797
#	180535
#	192960
#	204623
#	215155
#	228302
#
# Disc length: 3191 seconds
#
# Revision: 0
# Processed by: cddbd v1.5.1PL0 Copyright (c) Steve Scherf et al.
# Submitted via: OrangeCD 5.2
#
DISCID=f60c7513
DTITLE=Johnny Cash - More American Recordings cd 1
DYEAR=1900
DGENRE=Country
TTITLE0=What On Earth (Will You Do For Heaven's Sake)
TTITLE1=The Drifter (Alt. Version)
TTITLE2=Loving Her Was Easier
TTITLE3=The Devil
TTITLE4=Banks Of The Ohio (Alt. Version)
TTITLE5=Go Where I Send Thee
TTITLE6=One More Ride
TTITLE7=Don't Sell Daddy Any More Whiskey
TTITLE8=Two Timing Woman
TTITLE9=Lucky Old Sun (Alt. Version)
TTITLE10=I Witnessed A Crime
TTITLE11=The Next Time I'm In Town
TTITLE12=To Beat The Devil
TTITLE13=Friends In California
TTITLE14=The Wonder Of You
TTITLE15=East Virginia Blues
TTITLE16=Go On Blues
TTITLE17=Bad News
TTITLE18=All Of God's Children Ain't Free
EXTD=
EXTT0=
EXTT1=
EXTT2=
EXTT3=
EXTT4=
EXTT5=
EXTT6=
EXTT7=
EXTT8=
EXTT9=
EXTT10=
EXTT11=
EXTT12=
EXTT13=
EXTT14=
EXTT15=
EXTT16=
EXTT17=
EXTT18=
PLAYORDER=
